<svg height="512pt" viewBox="0 0 512 512" width="512pt" xmlns="http://www.w3.org/2000/svg"><path d="m217.671875 436.601562c-7.980469 5.976563-17.421875 9.027344-26.941406 9.039063-6.851563 0-13.742188-1.589844-20.160157-4.800781-15.359374-7.667969-24.898437-23.101563-24.898437-40.238282v-192.800781c0-51.390625 41.808594-93.199219 93.199219-93.199219h112.457031v-51.402343c0-16.878907-6.566406-32.75-18.507813-44.6875-11.941406-11.941407-27.808593-18.511719-44.691406-18.511719h-224.929687c-34.847657 0-63.199219 28.351562-63.199219 63.199219v385.601562c0 34.847657 28.351562 63.199219 63.199219 63.199219h224.929687c16.882813 0 32.75-6.570312 44.699219-18.511719 11.933594-11.9375 18.5-27.808593 18.5-44.6875v-51.402343h-81.398437zm-89.140625-379.300781c0-8.285156 6.71875-15 15-15h64.269531c8.285157 0 15 6.714844 15 15 0 8.285157-6.714843 15-15 15h-64.269531c-8.28125 0-15-6.714843-15-15zm0 0"/><path d="m448.800781 144.601562h-209.933593c-34.847657 0-63.199219 28.347657-63.199219 63.199219v192.800781c0 12.269532 14.074219 19.441407 24 12l60.265625-45.203124h188.867187c34.847657 0 63.199219-28.347657 63.199219-63.199219v-96.398438c0-34.851562-28.351562-63.199219-63.199219-63.199219zm-112.46875 158.53125h-72.300781c-8.28125 0-15-6.714843-15-15 0-8.285156 6.71875-15 15-15h72.300781c8.285157 0 15 6.714844 15 15 0 8.285157-6.714843 15-15 15zm88.367188-64.265624h-160.667969c-8.28125 0-15-6.714844-15-15 0-8.285157 6.71875-15 15-15h160.667969c8.285156 0 15 6.714843 15 15 0 8.285156-6.714844 15-15 15zm0 0"/></svg>